<svg xmlns="http://www.w3.org/2000/svg" width="92.61" height="92.611" viewBox="0 0 92.61 92.611">
  <g id="_059---Ability-Cooldown" data-name="059---Ability-Cooldown" transform="translate(-127)">
    <path id="Shape" d="M87.108,63.32a16.066,16.066,0,0,0,3.414-9.841V50.108a4.62,4.62,0,0,0-1.543-8.977H74.025l3.4-3.7a1.543,1.543,0,0,0-.227-2.287l-5.7-4.177,2.729-6.564a1.543,1.543,0,0,0-1-2.076l-4.706-1.36,1.915-10.816A1.543,1.543,0,0,0,68.6,8.371L57.7,10.6,56.114,5.352A1.543,1.543,0,0,0,54,4.4l-6.368,2.9L43.4,1.619A1.543,1.543,0,0,0,42.281,1a1.562,1.562,0,0,0-1.2.441L36.075,6.4l-5.868-3.88a1.543,1.543,0,0,0-2.246.627L24.925,9.54,18.117,7.947A1.543,1.543,0,0,0,16.228,9.3l-.684,7.083L8.6,17.249a1.543,1.543,0,0,0-1.307,1.906l1.736,6.918L2.78,29.294a1.543,1.543,0,0,0-.573,2.233l3.981,5.907L1.4,42.65a1.543,1.543,0,0,0,.225,2.289l5.711,4.177L4.607,55.68a1.543,1.543,0,0,0,1,2.076l5.208,1.5L6.8,63.266l-1-1a1.543,1.543,0,1,0-2.182,2.182l2.091,2.091,6.549,6.549,2.09,2.091A1.544,1.544,0,1,0,16.532,73l-1-1,3.993-4,1.117-.083L22.7,74.733a1.543,1.543,0,0,0,2.119.955l6.365-2.908,4.232,5.681a1.543,1.543,0,0,0,1.122.617h.117a1.543,1.543,0,0,0,1.08-.448l4.99-4.951L48.6,77.558a1.543,1.543,0,0,0,2.244-.617l3.152-6.614,5.626.13a1.6,1.6,0,0,0,1.5-1.054l1.9-5.671.343-.045a15.49,15.49,0,0,0,4.391,3.69,15.58,15.58,0,0,0-4.683,4.042,16.066,16.066,0,0,0-3.414,9.841v3.371A4.62,4.62,0,0,0,61.2,93.608H88.978a4.62,4.62,0,0,0,1.543-8.977V81.261a15.953,15.953,0,0,0-8.1-13.891,15.58,15.58,0,0,0,4.683-4.05ZM62.74,53.479V50.392h24.7v3.087a12.7,12.7,0,0,1-.387,3.087H63.133A12.489,12.489,0,0,1,62.74,53.479Zm27.782-7.717A1.543,1.543,0,0,1,88.978,47.3H61.2a1.543,1.543,0,1,1,0-3.087H88.978A1.543,1.543,0,0,1,90.522,45.761Zm-60.9,9.96-6.55-6.547L19.194,45.3a6.09,6.09,0,0,0,2.789-1.576l13.1,13.1a6.09,6.09,0,0,0-1.576,2.789Zm-11.5.583,2.939,5.8-1.993,1.993-2.933-5.8Zm5.234,3.5-2.933-5.8,1.559-1.559,4.365,4.365Zm-8.83-20.455a3.087,3.087,0,1,1,.9,2.182,3.087,3.087,0,0,1-.9-2.182ZM37.264,58.995a3.087,3.087,0,0,1,4.365,4.362,3.159,3.159,0,0,1-4.365,0,3.087,3.087,0,0,1,0-4.362Zm-5.458-9.821,6.547-6.549a1.543,1.543,0,0,0-2.182-2.182L29.623,47l-2.206-2.206L51.46,16.309,54,22.61,40.537,36.076a1.543,1.543,0,1,0,2.182,2.182L56.171,24.808l6.708,2.857L34.032,51.393Zm32.84-24.11-6.121-2.608,4.939-4.939a1.543,1.543,0,0,0-2.189-2.176l-4.9,4.9L54.059,14.5,67,11.85ZM8.122,55.266l2.533-6.087a1.543,1.543,0,0,0-.514-1.838L4.846,43.466l4.439-4.842a1.543,1.543,0,0,0,.142-1.9l-3.69-5.478,5.788-2.987a1.543,1.543,0,0,0,.792-1.746l-1.6-6.413,6.438-.8A1.543,1.543,0,0,0,18.5,17.907l.634-6.561,6.3,1.48a1.543,1.543,0,0,0,1.747-.841l2.8-5.905,5.433,3.587a1.543,1.543,0,0,0,1.937-.19l4.63-4.586L45.9,10.139a1.543,1.543,0,0,0,1.872.478l5.894-2.679.992,3.284-3.034.617a1.553,1.553,0,0,0-.871.516L25.234,42.594l-1.668-1.667A6.16,6.16,0,1,0,13.26,43.716l6.549,6.549-6.5,6.493Zm.86,10.187L13.837,60.6l2.933,5.8-3.42,3.422ZM60.4,61.836l-1.852,5.51-5.476-.131a1.61,1.61,0,0,0-1.428.88l-2.82,5.911-5.431-3.59a1.543,1.543,0,0,0-1.939.191l-4.618,4.579L32.925,69.94a1.543,1.543,0,0,0-1.881-.482l-5.894,2.7-1.911-6.313a1.531,1.531,0,0,0-.688-.864l5.982-5.982,6.549,6.549A6.174,6.174,0,1,0,37.87,55.238l-1.653-1.653,30.59-25.158a1.543,1.543,0,0,0,.539-.926l.617-3.482,2.733.79L68.165,30.9a1.543,1.543,0,0,0,.514,1.837L73.97,36.61l-4.13,4.521H61.2a4.62,4.62,0,0,0-1.543,8.977v3.371a15.964,15.964,0,0,0,1.832,7.362,1.543,1.543,0,0,0-1.09.992Zm27.04,22.511H62.74V81.261h4.63a7.087,7.087,0,0,0,5.921-3.232c.829-1.016,1.2-1.4,1.8-1.4s.968.383,1.8,1.4A7.088,7.088,0,0,0,82.8,81.261h4.63Zm1.543,6.174H61.2a1.543,1.543,0,1,1,0-3.087H88.978a1.543,1.543,0,1,1,0,3.087ZM87.041,78.174H82.8a4.155,4.155,0,0,1-3.53-2.1,4.728,4.728,0,0,0-8.375,0,4.155,4.155,0,0,1-3.53,2.1H63.127A13.1,13.1,0,0,1,65.5,73.317a12.193,12.193,0,0,1,6.7-4.4h5.762a12.718,12.718,0,0,1,9.074,9.261ZM77.969,65.826H72.207a12.44,12.44,0,0,1-7.858-6.174H85.836a13.008,13.008,0,0,1-1.164,1.77,12.193,12.193,0,0,1-6.7,4.4Z" transform="translate(126.003 -0.998)" fill="#fff"/>
  </g>
</svg>
