<svg id="Component_3_1" data-name="Component 3 – 1" xmlns="http://www.w3.org/2000/svg" width="53.147" height="61.026" viewBox="0 0 53.147 61.026">
  <rect id="Rectangle_8" data-name="Rectangle 8" width="41.332" height="37.634" transform="translate(7.232 11.047)" fill="#fff"/>
  <path id="Path_4" data-name="Path 4" d="M46.922,0H6.226A6.256,6.256,0,0,0,0,6.286V47.539a6.256,6.256,0,0,0,6.226,6.286h34.44l-1.61-5.645,3.887,3.631,3.675,3.417,6.529,5.8V6.286A6.256,6.256,0,0,0,46.922,0ZM35.2,39.85s-1.093-1.312-2-2.472a9.587,9.587,0,0,0,5.5-3.631,17.35,17.35,0,0,1-3.493,1.8,19.915,19.915,0,0,1-4.4,1.312,21.178,21.178,0,0,1-7.866-.03,25.408,25.408,0,0,1-4.464-1.312,17.772,17.772,0,0,1-2.217-1.038c-.091-.061-.182-.092-.273-.153a.419.419,0,0,1-.121-.091c-.547-.305-.85-.519-.85-.519a9.449,9.449,0,0,0,5.315,3.6c-.911,1.16-2.035,2.533-2.035,2.533-6.712-.214-9.263-4.638-9.263-4.638a41.009,41.009,0,0,1,4.373-17.789,14.971,14.971,0,0,1,8.534-3.2l.3.366c-5.467,1.587-7.987,4-7.987,4s.668-.366,1.792-.885a22.723,22.723,0,0,1,6.894-1.922,2.976,2.976,0,0,1,.516-.061,25.577,25.577,0,0,1,6.135-.061,24.673,24.673,0,0,1,9.141,2.929,20.184,20.184,0,0,0-7.562-3.875l.425-.488a14.971,14.971,0,0,1,8.534,3.2,41.007,41.007,0,0,1,4.373,17.789S41.911,39.636,35.2,39.85ZM21.077,25.6a3.4,3.4,0,0,0,0,6.774,3.244,3.244,0,0,0,3.1-3.387,3.225,3.225,0,0,0-3.1-3.387m11.085,0a3.4,3.4,0,0,0,0,6.774,3.245,3.245,0,0,0,3.1-3.387,3.245,3.245,0,0,0-3.1-3.387" fill="#7289da"/>
</svg>
