<svg id="crossed" xmlns="http://www.w3.org/2000/svg" width="81.28" height="81.279" viewBox="0 0 81.28 81.279">
  <path id="Path_29" data-name="Path 29" d="M497,60.445h0Z" transform="translate(-418.102 -50.849)" fill="#fff"/>
  <g id="Group_3" data-name="Group 3" transform="translate(0 0)">
    <path id="Path_30" data-name="Path 30" d="M205.131,0h-7.214a2.38,2.38,0,0,0-1.684.7L150.053,46.877l10.582,10.582,46.179-46.179a2.381,2.381,0,0,0,.7-1.684V2.381A2.381,2.381,0,0,0,205.131,0Z" transform="translate(-126.232 0)" fill="#fff"/>
    <path id="Path_31" data-name="Path 31" d="M9.493,363.237a7.646,7.646,0,0,0-2.235,5.123,7.466,7.466,0,1,0,7.671,7.7,7.439,7.439,0,0,0,5.037-2.182l4.324-4.324L13.73,359Z" transform="translate(-0.001 -302.009)" fill="#fff"/>
    <path id="Path_32" data-name="Path 32" d="M0,0H14.965V4.058H0Z" transform="translate(43.998 54.589) rotate(-45)" fill="#fff"/>
    <path id="Path_33" data-name="Path 33" d="M26.69,37.272,37.272,26.69,11.279.7A2.381,2.381,0,0,0,9.6,0H2.381A2.381,2.381,0,0,0,0,2.381V9.6a2.38,2.38,0,0,0,.7,1.684Z" transform="translate(0 0)" fill="#fff"/>
    <path id="Path_34" data-name="Path 34" d="M376.032,368.361a7.646,7.646,0,0,0-2.235-5.123L369.559,359,359,369.559l4.324,4.324a7.439,7.439,0,0,0,5.037,2.182,7.467,7.467,0,1,0,7.671-7.7Z" transform="translate(-302.009 -302.009)" fill="#fff"/>
    <path id="Path_35" data-name="Path 35" d="M300.155,273.831a2.381,2.381,0,0,0-3.368,0l-22.957,22.956a2.381,2.381,0,0,0,3.368,3.368L300.155,277.2A2.381,2.381,0,0,0,300.155,273.831Z" transform="translate(-229.774 -229.774)" fill="#fff"/>
    <path id="Path_36" data-name="Path 36" d="M68.323,273.831a2.381,2.381,0,0,0-3.368,3.368l22.957,22.956a2.381,2.381,0,1,0,3.368-3.368Z" transform="translate(-54.057 -229.774)" fill="#fff"/>
  </g>
</svg>
