<svg id="Group_4" data-name="Group 4" xmlns="http://www.w3.org/2000/svg" width="95.926" height="95.926" viewBox="0 0 95.926 95.926">
  <g id="book" transform="translate(15.518 15.087)">
    <path id="Path_12" data-name="Path 12" d="M64.242,362.912H63.153v-9.8a1.089,1.089,0,0,0-1.192-1.083C41.8,353.95,34.943,357.618,33.422,358.6c-.251-.015-.485-.047-.751-.047s-.5.031-.751.047c-1.524-.986-8.383-4.654-28.539-6.573a1.089,1.089,0,0,0-1.192,1.083v9.8H1.1A1.089,1.089,0,0,0,.012,364v4.355A1.089,1.089,0,0,0,1.1,369.444H28.316a1.089,1.089,0,0,0,1.089-1.089,3.266,3.266,0,1,1,6.532,0,1.089,1.089,0,0,0,1.089,1.089H64.242a1.089,1.089,0,0,0,1.089-1.089V364a1.089,1.089,0,0,0-1.089-1.089Zm-3.266-8.6v4.246H47.912v2.177H60.976v2.177H40.938a8.477,8.477,0,0,0-4.146-3.6c3.214-1.371,10.254-3.584,24.183-5Zm-56.61,6.423H17.43v-2.177H4.366v-4.246c13.8,1.4,20.894,3.626,24.155,5.008a8.469,8.469,0,0,0-4.118,3.592H4.366Zm-2.177,6.532v-2.177H8.721v2.177Zm30.482-4.355a5.452,5.452,0,0,0-5.334,4.355H10.9v-2.177H25.05a1.089,1.089,0,0,0,.974-.6c1.244-2.489,3.48-3.752,6.646-3.752s5.4,1.263,6.641,3.752a1.088,1.088,0,0,0,.98.6H54.444v2.177H38.005a5.452,5.452,0,0,0-5.334-4.355Zm30.482,4.355H56.621v-2.177h6.532Zm0,0" transform="translate(-0.012 -304.122)" fill="#fff"/>
    <path id="Path_13" data-name="Path 13" d="M320.012,400.023h2.177V402.2h-2.177Zm0,0" transform="translate(-276.466 -345.587)" fill="#fff"/>
    <path id="Path_14" data-name="Path 14" d="M128.827.186a1.089,1.089,0,0,0-1.343.153c-.284.283-6.96,7.024-6.749,15.241.108,4.24,2.026,8.068,5.7,11.379C136.369,35.9,134.9,40.876,134.857,41a1.088,1.088,0,0,0,1.589,1.306c.3-.183,7.294-4.554,7.863-10.869.3-3.3-1.2-6.454-4.44-9.374C127.942,11.344,127.948,5.419,129.283,1.458a1.088,1.088,0,0,0-.456-1.272Zm9.58,23.506c2.705,2.434,3.959,4.975,3.727,7.553-.306,3.419-3.112,6.293-5.033,7.884-.306-2.712-2.106-7.392-9.213-13.789-3.214-2.891-4.89-6.191-4.984-9.8-.109-4.163,1.889-8.013,3.628-10.56.066,5.572,3.883,11.521,11.877,18.715Zm0,0" transform="translate(-104.302 -0.019)" fill="#fff"/>
    <path id="Path_15" data-name="Path 15" d="M258.218,11.12a5.819,5.819,0,0,0-2.657,4.946c.218,3.733,4.747,6.523,4.939,6.641a1.158,1.158,0,0,0,.6.171,1.029,1.029,0,0,0,.607-.193,1.05,1.05,0,0,0,.427-1.1c0-.024-.245-2.44,5.043-6.567a7.135,7.135,0,0,0,3.091-5.649c.047-4.764-5.035-8.948-5.252-9.123a1.089,1.089,0,0,0-1.7,1.239c.725,1.867.986,4.893-5.1,9.639Zm7.59-6.967a8.864,8.864,0,0,1,2.286,5.194,5.009,5.009,0,0,1-2.252,3.948c-3.562,2.78-5,5.033-5.552,6.558-1.153-.98-2.468-2.443-2.553-3.919a3.76,3.76,0,0,1,1.823-3.1c3.841-3,5.911-5.865,6.249-8.68Zm0,0" transform="translate(-220.785 0.001)" fill="#fff"/>
    <path id="Path_16" data-name="Path 16" d="M240.012,216.023h2.177V218.2h-2.177Zm0,0" transform="translate(-207.353 -186.626)" fill="#fff"/>
    <path id="Path_17" data-name="Path 17" d="M216.012,192.023h2.177V194.2h-2.177Zm0,0" transform="translate(-186.618 -165.892)" fill="#fff"/>
    <path id="Path_18" data-name="Path 18" d="M360.012,181.466a1.089,1.089,0,0,0,1.089,1.089,3.266,3.266,0,0,1,3.266,3.266,1.089,1.089,0,1,0,2.177,0,3.266,3.266,0,0,1,3.266-3.266,1.089,1.089,0,1,0,0-2.177,3.266,3.266,0,0,1-3.266-3.266,1.089,1.089,0,1,0-2.177,0,3.266,3.266,0,0,1-3.266,3.266A1.089,1.089,0,0,0,360.012,181.466Zm5.443-1.123a5.439,5.439,0,0,0,1.122,1.123,5.45,5.45,0,0,0-1.122,1.122,5.446,5.446,0,0,0-1.122-1.122A5.436,5.436,0,0,0,365.455,180.344Zm0,0" transform="translate(-311.023 -152.07)" fill="#fff"/>
    <path id="Path_19" data-name="Path 19" d="M96.012,261.466a1.089,1.089,0,0,0,1.089,1.089,3.266,3.266,0,0,1,3.266,3.266,1.089,1.089,0,0,0,2.177,0,3.266,3.266,0,0,1,3.266-3.266,1.089,1.089,0,1,0,0-2.177,3.266,3.266,0,0,1-3.266-3.266,1.089,1.089,0,1,0-2.177,0,3.266,3.266,0,0,1-3.266,3.266A1.089,1.089,0,0,0,96.012,261.466Zm5.443-1.123a5.44,5.44,0,0,0,1.122,1.123,5.451,5.451,0,0,0-1.122,1.122,5.451,5.451,0,0,0-1.122-1.122A5.44,5.44,0,0,0,101.455,260.344Zm0,0" transform="translate(-82.948 -221.183)" fill="#fff"/>
    <path id="Path_20" data-name="Path 20" d="M209.81,4.378a3.266,3.266,0,0,1-3.266-3.266,1.089,1.089,0,0,0-2.177,0A3.266,3.266,0,0,1,201.1,4.378a1.089,1.089,0,1,0,0,2.177,3.266,3.266,0,0,1,3.266,3.266,1.089,1.089,0,0,0,2.177,0,3.266,3.266,0,0,1,3.266-3.266,1.089,1.089,0,1,0,0-2.177Zm-4.355,2.211a5.45,5.45,0,0,0-1.122-1.122,5.439,5.439,0,0,0,1.122-1.123,5.439,5.439,0,0,0,1.122,1.123A5.45,5.45,0,0,0,205.455,6.589Zm0,0" transform="translate(-172.796 -0.02)" fill="#fff"/>
    <path id="Path_21" data-name="Path 21" d="M328.012,152.023h2.177V154.2h-2.177Zm0,0" transform="translate(-283.377 -131.335)" fill="#fff"/>
    <path id="Path_22" data-name="Path 22" d="M328.012,256.023h2.177V258.2h-2.177Zm0,0" transform="translate(-283.377 -221.183)" fill="#fff"/>
    <path id="Path_23" data-name="Path 23" d="M120.012,216.023h2.177V218.2h-2.177Zm0,0" transform="translate(-103.682 -186.626)" fill="#fff"/>
    <path id="Path_24" data-name="Path 24" d="M200.012,336.023h2.177V338.2h-2.177Zm0,0" transform="translate(-172.796 -290.297)" fill="#fff"/>
    <path id="Path_25" data-name="Path 25" d="M48.012,296.023h2.177V298.2H48.012Zm0,0" transform="translate(-41.48 -255.74)" fill="#fff"/>
    <path id="Path_26" data-name="Path 26" d="M272.012,299.289a3.266,3.266,0,1,0,3.266-3.266A3.266,3.266,0,0,0,272.012,299.289Zm4.355,0a1.089,1.089,0,1,1-1.089-1.089A1.089,1.089,0,0,1,276.367,299.289Zm0,0" transform="translate(-234.998 -255.74)" fill="#fff"/>
    <path id="Path_27" data-name="Path 27" d="M59.278,160.023a3.266,3.266,0,1,0,3.266,3.266A3.266,3.266,0,0,0,59.278,160.023Zm0,4.355a1.089,1.089,0,1,1,1.089-1.089A1.089,1.089,0,0,1,59.278,164.378Zm0,0" transform="translate(-48.391 -138.247)" fill="#fff"/>
    <path id="Path_28" data-name="Path 28" d="M387.278,86.555a3.266,3.266,0,1,0-3.266-3.266A3.266,3.266,0,0,0,387.278,86.555Zm0-4.355a1.089,1.089,0,1,1-1.089,1.089A1.089,1.089,0,0,1,387.278,82.2Zm0,0" transform="translate(-331.757 -69.133)" fill="#fff"/>
  </g>
  <path id="traffic-signal" d="M47.963,95.926A47.939,47.939,0,1,0,14.041,81.885,48.018,48.018,0,0,0,47.963,95.926Zm0-7.994a39.688,39.688,0,0,1-25.3-9.013L78.92,22.658A39.985,39.985,0,0,1,47.963,87.932Zm0-79.938a39.682,39.682,0,0,1,25.3,9.013L17.006,73.268A39.985,39.985,0,0,1,47.963,7.994Zm0,0" transform="translate(0 0)" fill="#fff"/>
</svg>
