<svg id="settings" xmlns="http://www.w3.org/2000/svg" width="89.294" height="89.293" viewBox="0 0 89.294 89.293">
  <g id="Group_6" data-name="Group 6" transform="translate(0 0)">
    <g id="Group_5" data-name="Group 5">
      <path id="Path_37" data-name="Path 37" d="M87.971,37.575,80.723,35.77a36.791,36.791,0,0,0-4.29-10.351l3.847-6.4a1.744,1.744,0,0,0-.262-2.132L72.409,9.275a1.744,1.744,0,0,0-2.132-.262l-6.4,3.847a36.789,36.789,0,0,0-10.351-4.29L51.72,1.324A1.744,1.744,0,0,0,50.028,0H39.266a1.744,1.744,0,0,0-1.692,1.322L35.768,8.572a36.8,36.8,0,0,0-10.351,4.29l-6.4-3.848a1.744,1.744,0,0,0-2.132.262L9.273,16.886a1.744,1.744,0,0,0-.262,2.132l3.847,6.4A36.789,36.789,0,0,0,8.57,35.77L1.322,37.575A1.744,1.744,0,0,0,0,39.268V50.029a1.744,1.744,0,0,0,1.322,1.692L8.57,53.527a36.786,36.786,0,0,0,4.29,10.351l-3.848,6.4a1.744,1.744,0,0,0,.262,2.132l7.611,7.611a1.744,1.744,0,0,0,2.132.262l6.4-3.848a36.8,36.8,0,0,0,10.351,4.29l1.805,7.247A1.744,1.744,0,0,0,39.266,89.3H50.028a1.744,1.744,0,0,0,1.692-1.322l1.806-7.247a36.791,36.791,0,0,0,10.351-4.29l6.4,3.848a1.744,1.744,0,0,0,2.132-.262l7.611-7.611a1.744,1.744,0,0,0,.262-2.132l-3.847-6.4a36.791,36.791,0,0,0,4.29-10.351l7.247-1.805a1.744,1.744,0,0,0,1.322-1.692V39.268A1.745,1.745,0,0,0,87.971,37.575ZM85.805,48.667,78.842,50.4a1.744,1.744,0,0,0-1.284,1.327,33.359,33.359,0,0,1-4.634,11.183,1.744,1.744,0,0,0-.031,1.846l3.7,6.15-5.684,5.684-6.15-3.7a1.744,1.744,0,0,0-1.846.031A33.36,33.36,0,0,1,51.727,77.56,1.744,1.744,0,0,0,50.4,78.844l-1.735,6.964H40.629l-1.735-6.964a1.744,1.744,0,0,0-1.327-1.284,33.358,33.358,0,0,1-11.183-4.634,1.744,1.744,0,0,0-1.846-.031l-6.15,3.7L12.7,70.908l3.7-6.15a1.744,1.744,0,0,0-.031-1.846,33.359,33.359,0,0,1-4.635-11.183A1.744,1.744,0,0,0,10.451,50.4L3.488,48.667V40.631L10.452,38.9a1.744,1.744,0,0,0,1.284-1.327A33.359,33.359,0,0,1,16.37,26.385a1.744,1.744,0,0,0,.031-1.846l-3.7-6.15,5.684-5.684,6.15,3.7a1.744,1.744,0,0,0,1.846-.031,33.356,33.356,0,0,1,11.183-4.634,1.744,1.744,0,0,0,1.327-1.284L40.629,3.49h8.036L50.4,10.454a1.744,1.744,0,0,0,1.327,1.284A33.359,33.359,0,0,1,62.91,16.372a1.744,1.744,0,0,0,1.846.031l6.15-3.7,5.684,5.684-3.7,6.15a1.744,1.744,0,0,0,.031,1.846,33.359,33.359,0,0,1,4.634,11.183A1.744,1.744,0,0,0,78.842,38.9l6.964,1.735Z" transform="translate(0 -0.002)" fill="#fff"/>
    </g>
  </g>
  <g id="Group_8" data-name="Group 8" transform="translate(18.486 18.486)">
    <g id="Group_7" data-name="Group 7">
      <path id="Path_38" data-name="Path 38" d="M132.16,106a25.9,25.9,0,0,0-11.587,2.7,1.744,1.744,0,1,0,1.547,3.126,22.446,22.446,0,0,1,10.04-2.338,22.662,22.662,0,1,1-19.528,11.145,1.744,1.744,0,1,0-3-1.776A26.163,26.163,0,1,0,132.16,106Z" transform="translate(-106 -106.002)" fill="#fff"/>
    </g>
  </g>
  <g id="Group_10" data-name="Group 10" transform="translate(32.09 32.09)">
    <g id="Group_9" data-name="Group 9">
      <path id="Path_39" data-name="Path 39" d="M196.557,184a12.557,12.557,0,1,0,12.557,12.557A12.571,12.571,0,0,0,196.557,184Zm0,21.626a9.069,9.069,0,1,1,9.069-9.069A9.079,9.079,0,0,1,196.557,205.628Z" transform="translate(-184 -184.002)" fill="#fff"/>
    </g>
  </g>
  <g id="Group_12" data-name="Group 12" transform="translate(26.263 25.037)">
    <g id="Group_11" data-name="Group 11">
      <path id="Path_40" data-name="Path 40" d="M153.567,144.073a1.743,1.743,0,1,0,.511,1.233A1.757,1.757,0,0,0,153.567,144.073Z" transform="translate(-150.59 -143.562)" fill="#fff"/>
    </g>
  </g>
</svg>
