<svg id="shield-variant-with-white-and-black-borders" xmlns="http://www.w3.org/2000/svg" width="81.28" height="94.509" viewBox="0 0 81.28 94.509">
  <g id="Group_2" data-name="Group 2" transform="translate(0 0)">
    <path id="Path_10" data-name="Path 10" d="M116.565,60.5c-.926.7-13.626,10.153-29.914,13.414-2.147,37.586,29.894,57.045,29.914,57.034.02.011,32.062-19.448,29.914-57.035C130.19,70.651,116.565,60.5,116.565,60.5Z" transform="translate(-75.924 -48.449)" fill="#fffcfc"/>
    <path id="Path_11" data-name="Path 11" d="M114.354,19.407a2.513,2.513,0,0,0-2.015-2.32C92.477,13.111,75.519.622,75.351.5a2.51,2.51,0,0,0-3.021.016c-.669.509-16.607,12.5-36.969,16.574a2.513,2.513,0,0,0-2.016,2.32c-1.632,28.561,11.769,49.107,23.3,61.312a95.541,95.541,0,0,0,11.031,10c1.517,1.166,2.742,2.023,3.5,2.536,1.419.96,1.828,1.235,2.611,1.249h.1c.773,0,1.239-.312,2.468-1.136.666-.447,1.744-1.191,3.088-2.208a94.19,94.19,0,0,0,9.914-8.69,89.548,89.548,0,0,0,17.576-24.749A78.146,78.146,0,0,0,114.354,19.407Zm-22,52.169A88.031,88.031,0,0,1,73.85,89a88.014,88.014,0,0,1-18.5-17.43C43.411,56.6,37.672,39.8,38.275,21.6c17.192-3.883,31.1-12.863,35.589-16,4.551,3.135,18.7,12.175,35.562,16C110.028,39.8,104.29,56.605,92.352,71.576Z" transform="translate(-33.21 0)" fill="#fffcfc"/>
  </g>
</svg>
